<svg xmlns="http://www.w3.org/2000/svg" width="1024" height="1024" viewBox="0 0 1024 1024" fill="none"><path d="M333.035 163.598C416.84 163.598 484.793 231.552 484.793 315.355V491.63C484.793 518.608 463.984 541.439 437.039 542.924C423.954 543.632 411.882 539.382 402.54 531.861C391.344 522.858 375.595 523.262 364.297 532.165C355.697 538.943 344.839 542.991 333.002 542.991C321.164 542.991 310.339 538.943 301.739 532.165C290.307 523.161 274.558 523.161 263.126 532.165C254.594 538.877 243.87 542.924 232.201 542.991C204.177 543.193 181.278 519.586 181.278 491.562V315.355C181.278 231.552 249.232 163.598 333.035 163.598ZM246.536 269.377C239.184 265.128 229.741 267.657 225.492 275.009C221.243 282.361 223.772 291.803 231.124 296.053L264.578 315.377L231.124 334.701C223.773 338.949 221.243 348.358 225.492 355.743C229.741 363.095 239.151 365.624 246.536 361.375L303.09 328.73C313.342 322.795 313.342 307.992 303.09 302.055V302.021L246.536 269.377ZM356.846 299.935C348.348 299.935 341.435 306.814 341.435 315.346C341.435 323.878 348.314 330.758 356.846 330.758H431.14C439.638 330.758 446.551 323.878 446.551 315.346C446.551 306.814 439.672 299.935 431.14 299.935H356.846Z" fill="#cdd6f4" /></svg>